<?xml version="1.0" encoding="UTF-8" standalone="no"?>
<!-- Generator: Adobe Illustrator 17.1.0, SVG Export Plug-In . SVG Version: 6.00 Build 0)  -->

<svg
   xmlns:dc="http://purl.org/dc/elements/1.1/"
   xmlns:cc="http://creativecommons.org/ns#"
   xmlns:rdf="http://www.w3.org/1999/02/22-rdf-syntax-ns#"
   xmlns:svg="http://www.w3.org/2000/svg"
   xmlns="http://www.w3.org/2000/svg"
   xmlns:sodipodi="http://sodipodi.sourceforge.net/DTD/sodipodi-0.dtd"
   xmlns:inkscape="http://www.inkscape.org/namespaces/inkscape"
   version="1.1"
   x="0px"
   y="0px"
   viewBox="0 0 225 126"
   enable-background="new 0 0 225 126"
   xml:space="preserve"
   id="svg2"
   inkscape:version="0.91 r13725"
   sodipodi:docname="hero.svg"><metadata
     id="metadata31"><rdf:RDF><cc:Work
         rdf:about=""><dc:format>image/svg+xml</dc:format><dc:type
           rdf:resource="http://purl.org/dc/dcmitype/StillImage" /></cc:Work></rdf:RDF></metadata><defs
     id="defs29" /><sodipodi:namedview
     pagecolor="#ffffff"
     bordercolor="#666666"
     borderopacity="1"
     objecttolerance="10"
     gridtolerance="10"
     guidetolerance="10"
     inkscape:pageopacity="0"
     inkscape:pageshadow="2"
     inkscape:window-width="1871"
     inkscape:window-height="1062"
     id="namedview27"
     showgrid="true"
     showguides="true"
     inkscape:guide-bbox="true"
     inkscape:zoom="3.7460946"
     inkscape:cx="59.549281"
     inkscape:cy="71.253798"
     inkscape:window-x="49"
     inkscape:window-y="18"
     inkscape:window-maximized="1"
     inkscape:current-layer="art-7"><inkscape:grid
       type="xygrid"
       id="grid4219" /></sodipodi:namedview><g
     id="background"
     display="none"><rect
       display="inline"
       fill="#B0BEC5"
       width="225"
       height="126"
       id="rect5" /></g><g
     id="label" /><g
     id="art"><g
       id="ic_x5F_add_x0D_" /><g
       style="display:none"
       id="background-3"
       display="none"
       transform="translate(3.2088922,7.051175)"><rect
         style="display:inline;fill:#b0bec5"
         y="0"
         x="0"
         display="inline"
         width="225"
         height="126"
         id="rect4158" /></g><g
       id="label-6"
       transform="translate(3.2088922,7.051175)" /><g
       id="art-7"
       transform="translate(3.2088922,46.423429)"><g
         id="ic_x5F_add_x0D_-5" /><g
         id="g4163"
         transform="translate(-1.8686127,0)"><path
           id="path4162"
           d="m 188.57414,33.088981 -151.000007,0 0,-33.9999996 151.000007,0 0,33.9999996 z m -149.000007,-2 147.000007,0 0,-29.9999996 -147.000007,0 0,29.9999996 z"
           inkscape:connector-curvature="0" /><path
           inkscape:connector-curvature="0"
           d="m 177.37081,7.7439046 -20.538,0 c -0.955,0 -1.731,0.776 -1.731,1.731 l 0,11.5380004 c 0,0.954 0.776,1.729 1.731,1.729 l 20.538,0 c 0.955,0 1.731,-0.775 1.731,-1.729 l 0,-11.5380004 c 0,-0.955 -0.776,-1.731 -1.731,-1.731 z m -8.769,11.9960004 -3,0.004 0,-4.5 -2.25,2.884 -2.25,-2.884 0,4.5 -3,0 0,-9 3,0 2.25,3 2.25,-3 3,-0.003 0,8.999 z m 4.478,0.75 -3.728,-5.246 2.25,0 0,-4.5 2.999,0 0,4.5 2.25,0 -3.771,5.246 0,0 z"
           id="path4148" /><polygon
           transform="translate(6.6978757,-43.681843)"
           points="55.3,61.2 60.6,53.2 66,61.2 71.3,53.2 77.4,62.4 75.8,63.6 71.3,56.8 66,64.8 60.6,56.8 55.3,64.8 49.2,55.6 50.8,54.4 "
           id="polygon11" /></g></g><g
       id="Guides-3"
       transform="translate(3.2088922,7.051175)" /></g><g
     id="Guides" /></svg>